<?xml version="1.0" encoding="UTF-8"?>
<!DOCTYPE svg PUBLIC "-//W3C//DTD SVG 1.1//EN" "http://www.w3.org/Graphics/SVG/1.1/DTD/svg11.dtd">
<svg version="1.2" width="223.02mm" height="157.77mm" viewBox="0 0 22302 15777" preserveAspectRatio="xMidYMid" fill-rule="evenodd" stroke-width="28.222" stroke-linejoin="round" xmlns="http://www.w3.org/2000/svg" xmlns:ooo="http://xml.openoffice.org/svg/export" xmlns:xlink="http://www.w3.org/1999/xlink" xmlns:presentation="http://sun.com/xmlns/staroffice/presentation" xmlns:smil="http://www.w3.org/2001/SMIL20/" xmlns:anim="urn:oasis:names:tc:opendocument:xmlns:animation:1.0" xml:space="preserve">
 <defs class="ClipPathGroup">
  <clipPath id="presentation_clip_path" clipPathUnits="userSpaceOnUse">
   <rect x="0" y="0" width="22302" height="15777"/>
  </clipPath>
  <clipPath id="presentation_clip_path_shrink" clipPathUnits="userSpaceOnUse">
   <rect x="22" y="15" width="22258" height="15746"/>
  </clipPath>
 </defs>
 <defs class="TextShapeIndex">
  <g ooo:slide="id1" ooo:id-list="id3 id4 id5 id6 id7 id8"/>
 </defs>
 <defs class="EmbeddedBulletChars">
  <g id="bullet-char-template-57356" transform="scale(0.00048828125,-0.00048828125)">
   <path d="M 580,1141 L 1163,571 580,0 -4,571 580,1141 Z"/>
  </g>
  <g id="bullet-char-template-57354" transform="scale(0.00048828125,-0.00048828125)">
   <path d="M 8,1128 L 1137,1128 1137,0 8,0 8,1128 Z"/>
  </g>
  <g id="bullet-char-template-10146" transform="scale(0.00048828125,-0.00048828125)">
   <path d="M 174,0 L 602,739 174,1481 1456,739 174,0 Z M 1358,739 L 309,1346 659,739 1358,739 Z"/>
  </g>
  <g id="bullet-char-template-10132" transform="scale(0.00048828125,-0.00048828125)">
   <path d="M 2015,739 L 1276,0 717,0 1260,543 174,543 174,936 1260,936 717,1481 1274,1481 2015,739 Z"/>
  </g>
  <g id="bullet-char-template-10007" transform="scale(0.00048828125,-0.00048828125)">
   <path d="M 0,-2 C -7,14 -16,27 -25,37 L 356,567 C 262,823 215,952 215,954 215,979 228,992 255,992 264,992 276,990 289,987 310,991 331,999 354,1012 L 381,999 492,748 772,1049 836,1024 860,1049 C 881,1039 901,1025 922,1006 886,937 835,863 770,784 769,783 710,716 594,584 L 774,223 C 774,196 753,168 711,139 L 727,119 C 717,90 699,76 672,76 641,76 570,178 457,381 L 164,-76 C 142,-110 111,-127 72,-127 30,-127 9,-110 8,-76 1,-67 -2,-52 -2,-32 -2,-23 -1,-13 0,-2 Z"/>
  </g>
  <g id="bullet-char-template-10004" transform="scale(0.00048828125,-0.00048828125)">
   <path d="M 285,-33 C 182,-33 111,30 74,156 52,228 41,333 41,471 41,549 55,616 82,672 116,743 169,778 240,778 293,778 328,747 346,684 L 369,508 C 377,444 397,411 428,410 L 1163,1116 C 1174,1127 1196,1133 1229,1133 1271,1133 1292,1118 1292,1087 L 1292,965 C 1292,929 1282,901 1262,881 L 442,47 C 390,-6 338,-33 285,-33 Z"/>
  </g>
  <g id="bullet-char-template-9679" transform="scale(0.00048828125,-0.00048828125)">
   <path d="M 813,0 C 632,0 489,54 383,161 276,268 223,411 223,592 223,773 276,916 383,1023 489,1130 632,1184 813,1184 992,1184 1136,1130 1245,1023 1353,916 1407,772 1407,592 1407,412 1353,268 1245,161 1136,54 992,0 813,0 Z"/>
  </g>
  <g id="bullet-char-template-8226" transform="scale(0.00048828125,-0.00048828125)">
   <path d="M 346,457 C 273,457 209,483 155,535 101,586 74,649 74,723 74,796 101,859 155,911 209,963 273,989 346,989 419,989 480,963 531,910 582,859 608,796 608,723 608,648 583,586 532,535 482,483 420,457 346,457 Z"/>
  </g>
  <g id="bullet-char-template-8211" transform="scale(0.00048828125,-0.00048828125)">
   <path d="M -4,459 L 1135,459 1135,606 -4,606 -4,459 Z"/>
  </g>
  <g id="bullet-char-template-61548" transform="scale(0.00048828125,-0.00048828125)">
   <path d="M 173,740 C 173,903 231,1043 346,1159 462,1274 601,1332 765,1332 928,1332 1067,1274 1183,1159 1299,1043 1357,903 1357,740 1357,577 1299,437 1183,322 1067,206 928,148 765,148 601,148 462,206 346,322 231,437 173,577 173,740 Z"/>
  </g>
 </defs>
 <g>
  <g id="id2" class="Master_Slide">
   <g id="bg-id2" class="Background"/>
   <g id="bo-id2" class="BackgroundObjects"/>
  </g>
 </g>
 <g class="SlideGroup">
  <g>
   <g id="container-id1">
    <g id="id1" class="Slide" clip-path="url(#presentation_clip_path)">
     <g class="Page">
      <g class="com.sun.star.drawing.CustomShape">
       <g id="id3">
        <rect class="BoundingBox" stroke="none" fill="none" x="2708" y="1819" width="17232" height="12152"/>
        <path fill="none" stroke="rgb(52,101,164)" stroke-width="212" stroke-linejoin="round" d="M 4859,1925 L 4859,1925 C 4500,1925 4147,2019 3837,2199 3526,2378 3267,2637 3088,2948 2908,3258 2814,3611 2814,3970 L 2814,11818 2814,11819 C 2814,12178 2908,12531 3088,12841 3267,13152 3526,13411 3837,13590 4147,13770 4500,13864 4859,13864"/>
        <path fill="none" stroke="rgb(52,101,164)" stroke-width="212" stroke-linejoin="round" d="M 17787,13863 L 17788,13864 C 18147,13864 18500,13770 18810,13590 19121,13411 19380,13152 19559,12841 19739,12531 19833,12178 19833,11819 L 19833,3970 19833,3970 19833,3970 C 19833,3611 19739,3258 19559,2948 19380,2637 19121,2378 18810,2199 18500,2019 18147,1925 17788,1925"/>
       </g>
      </g>
      <g class="com.sun.star.drawing.CustomShape">
       <g id="id4">
        <rect class="BoundingBox" stroke="none" fill="none" x="5733" y="2812" width="11307" height="10291"/>
        <path fill="rgb(238,238,238)" stroke="none" d="M 17038,7957 C 17038,8860 16777,9747 16281,10529 15785,11311 15071,11960 14212,12412 13353,12863 12378,13101 11386,13101 10394,13101 9419,12863 8560,12412 7701,11960 6987,11311 6491,10529 5995,9747 5734,8860 5734,7957 5734,7054 5995,6167 6491,5385 6987,4603 7701,3954 8560,3502 9419,3051 10394,2813 11386,2813 12378,2813 13353,3051 14212,3502 15071,3954 15785,4603 16281,5385 16777,6167 17038,7054 17038,7957 L 17038,7957 Z"/>
        <path fill="none" stroke="rgb(52,101,164)" d="M 17038,7957 C 17038,8860 16777,9747 16281,10529 15785,11311 15071,11960 14212,12412 13353,12863 12378,13101 11386,13101 10394,13101 9419,12863 8560,12412 7701,11960 6987,11311 6491,10529 5995,9747 5734,8860 5734,7957 5734,7054 5995,6167 6491,5385 6987,4603 7701,3954 8560,3502 9419,3051 10394,2813 11386,2813 12378,2813 13353,3051 14212,3502 15071,3954 15785,4603 16281,5385 16777,6167 17038,7054 17038,7957 L 17038,7957 Z"/>
       </g>
      </g>
      <g class="com.sun.star.drawing.ConnectorShape">
       <g id="id5">
        <rect class="BoundingBox" stroke="none" fill="none" x="11386" y="2813" width="3" height="3"/>
        <path fill="none" stroke="rgb(52,101,164)" d="M 11387,2814 L 11387,2814 Z"/>
       </g>
      </g>
      <g class="com.sun.star.drawing.CustomShape">
       <g id="id6">
        <rect class="BoundingBox" stroke="none" fill="none" x="9804" y="6471" width="3200" height="2950"/>
        <path fill="rgb(0,0,0)" stroke="none" d="M 13002,7946 C 13002,8204 12928,8458 12788,8682 12648,8906 12446,9092 12203,9222 11960,9351 11684,9419 11404,9419 11123,9419 10847,9351 10604,9222 10361,9092 10159,8906 10019,8682 9879,8458 9805,8204 9805,7946 9805,7687 9879,7433 10019,7209 10159,6985 10361,6799 10604,6669 10847,6540 11123,6472 11403,6472 11684,6472 11960,6540 12203,6669 12446,6799 12648,6985 12788,7209 12928,7433 13002,7687 13002,7945 L 13002,7946 Z"/>
        <path fill="none" stroke="rgb(52,101,164)" d="M 13002,7946 C 13002,8204 12928,8458 12788,8682 12648,8906 12446,9092 12203,9222 11960,9351 11684,9419 11404,9419 11123,9419 10847,9351 10604,9222 10361,9092 10159,8906 10019,8682 9879,8458 9805,8204 9805,7946 9805,7687 9879,7433 10019,7209 10159,6985 10361,6799 10604,6669 10847,6540 11123,6472 11403,6472 11684,6472 11960,6540 12203,6669 12446,6799 12648,6985 12788,7209 12928,7433 13002,7687 13002,7945 L 13002,7946 Z"/>
       </g>
      </g>
      <g class="com.sun.star.drawing.EllipseShape">
       <g id="id7">
        <rect class="BoundingBox" stroke="none" fill="none" x="7169" y="6242" width="5807" height="5628"/>
        <path fill="none" stroke="rgb(52,101,164)" d="M 7677,11868 C 7645,11810 7614,11752 7585,11693 7313,11140 7170,10514 7170,9876 7170,9238 7313,8612 7585,8060 7857,7507 8247,7049 8718,6730 9189,6411 9723,6243 10266,6243 10809,6243 11343,6411 11814,6730 12285,7049 12675,7507 12947,8059 12956,8078 12965,8096 12974,8115"/>
       </g>
      </g>
      <g class="com.sun.star.drawing.EllipseShape">
       <g id="id8">
        <rect class="BoundingBox" stroke="none" fill="none" x="9869" y="4132" width="5807" height="5388"/>
        <path fill="none" stroke="rgb(52,101,164)" d="M 15167,4133 C 15199,4188 15230,4244 15259,4301 15531,4830 15674,5429 15674,6040 15674,6651 15531,7250 15259,7779 14987,8308 14597,8747 14126,9052 13655,9357 13121,9518 12578,9518 12035,9518 11501,9357 11030,9052 10559,8747 10169,8308 9897,7779 9888,7761 9879,7744 9870,7726"/>
       </g>
      </g>
     </g>
    </g>
   </g>
  </g>
 </g>
</svg>